<mxfile host="app.diagrams.net" agent="Mozilla/5.0 (iPad; CPU OS 18_2_0 like Mac OS X) AppleWebKit/605.1.15 (KHTML, like Gecko) CriOS/131.0.6778.134 Mobile/15E148 Safari/604.1" version="25.0.3">
  <diagram name="Page-1" id="FA4tcvMbUKIWqvItOWGK">
    <mxGraphModel dx="1288" dy="1109" grid="0" gridSize="10" guides="1" tooltips="1" connect="1" arrows="1" fold="1" page="0" pageScale="1" pageWidth="827" pageHeight="1169" math="0" shadow="0">
      <root>
        <mxCell id="0" />
        <mxCell id="1" parent="0" />
        <mxCell id="uRqMAjk5Vr4BDVFBep58-1" value="Equip9 Assignment Comprehensive Diagram" style="text;strokeColor=none;fillColor=none;html=1;align=center;verticalAlign=middle;whiteSpace=wrap;rounded=0;fontSize=16;" vertex="1" parent="1">
          <mxGeometry x="101" y="62" width="398" height="30" as="geometry" />
        </mxCell>
        <mxCell id="uRqMAjk5Vr4BDVFBep58-5" value="" style="edgeStyle=none;curved=1;rounded=0;orthogonalLoop=1;jettySize=auto;html=1;fontSize=12;startSize=8;endSize=8;entryX=0;entryY=0.5;entryDx=0;entryDy=0;" edge="1" parent="1" source="uRqMAjk5Vr4BDVFBep58-2" target="uRqMAjk5Vr4BDVFBep58-4">
          <mxGeometry relative="1" as="geometry" />
        </mxCell>
        <mxCell id="uRqMAjk5Vr4BDVFBep58-2" value="Developer (User)" style="rhombus;whiteSpace=wrap;html=1;" vertex="1" parent="1">
          <mxGeometry x="-114" y="206" width="80" height="80" as="geometry" />
        </mxCell>
        <mxCell id="uRqMAjk5Vr4BDVFBep58-21" value="" style="edgeStyle=none;curved=1;rounded=0;orthogonalLoop=1;jettySize=auto;html=1;fontSize=12;startSize=8;endSize=8;" edge="1" parent="1" source="uRqMAjk5Vr4BDVFBep58-4" target="uRqMAjk5Vr4BDVFBep58-12">
          <mxGeometry relative="1" as="geometry" />
        </mxCell>
        <mxCell id="uRqMAjk5Vr4BDVFBep58-4" value="" style="rounded=0;whiteSpace=wrap;html=1;" vertex="1" parent="1">
          <mxGeometry x="37" y="103" width="506" height="291" as="geometry" />
        </mxCell>
        <mxCell id="uRqMAjk5Vr4BDVFBep58-17" style="edgeStyle=none;curved=1;rounded=0;orthogonalLoop=1;jettySize=auto;html=1;fontSize=12;startSize=8;endSize=8;" edge="1" parent="1" source="uRqMAjk5Vr4BDVFBep58-11">
          <mxGeometry relative="1" as="geometry">
            <mxPoint x="356.1578947368421" y="188.5" as="targetPoint" />
          </mxGeometry>
        </mxCell>
        <mxCell id="uRqMAjk5Vr4BDVFBep58-11" value="GitHub repository management" style="shape=hexagon;perimeter=hexagonPerimeter2;whiteSpace=wrap;html=1;fixedSize=1;" vertex="1" parent="1">
          <mxGeometry x="101" y="138" width="138" height="101" as="geometry" />
        </mxCell>
        <mxCell id="uRqMAjk5Vr4BDVFBep58-12" value="Documentation and Submission" style="shape=hexagon;perimeter=hexagonPerimeter2;whiteSpace=wrap;html=1;fixedSize=1;" vertex="1" parent="1">
          <mxGeometry x="618" y="191" width="120" height="80" as="geometry" />
        </mxCell>
        <mxCell id="uRqMAjk5Vr4BDVFBep58-13" value="Database Setup" style="shape=hexagon;perimeter=hexagonPerimeter2;whiteSpace=wrap;html=1;fixedSize=1;" vertex="1" parent="1">
          <mxGeometry x="116" y="281" width="123" height="89" as="geometry" />
        </mxCell>
        <mxCell id="uRqMAjk5Vr4BDVFBep58-19" value="" style="edgeStyle=none;curved=1;rounded=0;orthogonalLoop=1;jettySize=auto;html=1;fontSize=12;startSize=8;endSize=8;" edge="1" parent="1" source="uRqMAjk5Vr4BDVFBep58-14" target="uRqMAjk5Vr4BDVFBep58-13">
          <mxGeometry relative="1" as="geometry" />
        </mxCell>
        <mxCell id="uRqMAjk5Vr4BDVFBep58-14" value="Backend Development" style="shape=hexagon;perimeter=hexagonPerimeter2;whiteSpace=wrap;html=1;fixedSize=1;" vertex="1" parent="1">
          <mxGeometry x="361" y="281" width="121" height="95" as="geometry" />
        </mxCell>
        <mxCell id="uRqMAjk5Vr4BDVFBep58-18" value="" style="edgeStyle=none;curved=1;rounded=0;orthogonalLoop=1;jettySize=auto;html=1;fontSize=12;startSize=8;endSize=8;" edge="1" parent="1" source="uRqMAjk5Vr4BDVFBep58-15" target="uRqMAjk5Vr4BDVFBep58-14">
          <mxGeometry relative="1" as="geometry" />
        </mxCell>
        <mxCell id="uRqMAjk5Vr4BDVFBep58-15" value="Frontend Development" style="shape=hexagon;perimeter=hexagonPerimeter2;whiteSpace=wrap;html=1;fixedSize=1;" vertex="1" parent="1">
          <mxGeometry x="358" y="138" width="119" height="97" as="geometry" />
        </mxCell>
        <mxCell id="uRqMAjk5Vr4BDVFBep58-16" style="edgeStyle=none;curved=1;rounded=0;orthogonalLoop=1;jettySize=auto;html=1;exitX=0;exitY=0.5;exitDx=0;exitDy=0;fontSize=12;startSize=8;endSize=8;" edge="1" parent="1" source="uRqMAjk5Vr4BDVFBep58-15" target="uRqMAjk5Vr4BDVFBep58-15">
          <mxGeometry relative="1" as="geometry" />
        </mxCell>
        <mxCell id="uRqMAjk5Vr4BDVFBep58-20" value="Equip9 Assignment System" style="text;strokeColor=none;fillColor=none;html=1;align=center;verticalAlign=middle;whiteSpace=wrap;rounded=0;fontSize=16;" vertex="1" parent="1">
          <mxGeometry x="187" y="103" width="228" height="30" as="geometry" />
        </mxCell>
      </root>
    </mxGraphModel>
  </diagram>
</mxfile>
